<?xml version="1.0" encoding="UTF-8" standalone="no"?>
<svg
   viewBox="0 0 500 500"
   version="1.1"
   width="500"
   height="500"
   xmlns="http://www.w3.org/2000/svg"
   xmlns:svg="http://www.w3.org/2000/svg">
  <rect
     x="10"
     y="10"
     width="480"
     height="480"
     rx="150"
     fill="#6655ff"
     style="fill:#a02c2c" />
  <g
     transform="matrix(22.418545,0,0,22.418545,-24.451391,-20.590508)"
     fill="#8855dd"
     style="fill:#1a002a;fill-opacity:1">
    <path
       d="M 3.25,9 A 5.75,5.75 0 0 1 9,3.25 h 7.013 a 0.75,0.75 0 0 1 0,1.5 H 9 A 4.25,4.25 0 0 0 4.75,9 v 7.107 a 0.75,0.75 0 0 1 -1.5,0 z"
       style="fill:#1a002a;fill-opacity:1" />
    <path
       d="m 18.403,6.793 a 44.4,44.4 0 0 0 -9.806,0 2.01,2.01 0 0 0 -1.774,1.76 42.6,42.6 0 0 0 0,9.894 2.01,2.01 0 0 0 1.774,1.76 c 3.241,0.362 6.565,0.362 9.806,0 a 2.01,2.01 0 0 0 1.774,-1.76 42.6,42.6 0 0 0 0,-9.894 2.01,2.01 0 0 0 -1.774,-1.76"
       style="fill:#1a002a;fill-opacity:1" />
  </g>
  <g
     transform="matrix(14.150357,0,0,14.150357,113.04017,99.87554)"
     fill="#110022"
     style="fill:#ffff00;fill-opacity:1">
    <path
       d="m 9.71,6.29 a 1,1 0 0 0 -1.42,0 l -5,5 a 1,1 0 0 0 0,1.42 l 5,5 a 1,1 0 0 0 1.42,0 1,1 0 0 0 0,-1.42 L 5.41,12 9.71,7.71 a 1,1 0 0 0 0,-1.42 m 11,5 -5,-5 a 1.0040916,1.0040916 0 0 0 -1.42,1.42 l 4.3,4.29 -4.3,4.29 a 1,1 0 0 0 0,1.42 1,1 0 0 0 1.42,0 l 5,-5 a 1,1 0 0 0 0,-1.42"
       style="fill:#ffff00;fill-opacity:1" />
  </g>
</svg>
